<mxfile host="Electron" modified="2024-05-31T12:23:46.759Z" agent="Mozilla/5.0 (Windows NT 10.0; Win64; x64) AppleWebKit/537.36 (KHTML, like Gecko) draw.io/24.4.8 Chrome/124.0.6367.207 Electron/30.0.6 Safari/537.36" etag="fGVG5HsBtvAvlF-u-i6o" version="24.4.8" type="device" pages="6">
  <diagram name="Page-1" id="LcDcr__vh74zih2-R7AL">
    <mxGraphModel dx="1588" dy="1056" grid="1" gridSize="10" guides="1" tooltips="1" connect="1" arrows="1" fold="1" page="1" pageScale="1" pageWidth="1169" pageHeight="1654" math="0" shadow="0">
      <root>
        <mxCell id="0" />
        <mxCell id="1" parent="0" />
        <mxCell id="71Y_ChVGYkW_gdRiqhIS-2" value="Hệ thống" style="rounded=0;whiteSpace=wrap;html=1;" vertex="1" parent="1">
          <mxGeometry x="160" y="360" width="120" height="60" as="geometry" />
        </mxCell>
        <mxCell id="71Y_ChVGYkW_gdRiqhIS-3" value="Quản lý mượn trả" style="rounded=0;whiteSpace=wrap;html=1;" vertex="1" parent="1">
          <mxGeometry x="480" y="360" width="120" height="60" as="geometry" />
        </mxCell>
        <mxCell id="71Y_ChVGYkW_gdRiqhIS-4" value="Quản lý&amp;nbsp; sách" style="rounded=0;whiteSpace=wrap;html=1;" vertex="1" parent="1">
          <mxGeometry x="800" y="360" width="120" height="60" as="geometry" />
        </mxCell>
        <mxCell id="71Y_ChVGYkW_gdRiqhIS-6" value="" style="endArrow=none;html=1;rounded=0;" edge="1" parent="1">
          <mxGeometry width="50" height="50" relative="1" as="geometry">
            <mxPoint x="220" y="320" as="sourcePoint" />
            <mxPoint x="1500" y="320" as="targetPoint" />
          </mxGeometry>
        </mxCell>
        <mxCell id="71Y_ChVGYkW_gdRiqhIS-7" value="" style="endArrow=none;html=1;rounded=0;entryX=0.5;entryY=1;entryDx=0;entryDy=0;exitX=0.5;exitY=0;exitDx=0;exitDy=0;" edge="1" parent="1" source="71Y_ChVGYkW_gdRiqhIS-4">
          <mxGeometry width="50" height="50" relative="1" as="geometry">
            <mxPoint x="880" y="340" as="sourcePoint" />
            <mxPoint x="859.5" y="320" as="targetPoint" />
          </mxGeometry>
        </mxCell>
        <mxCell id="71Y_ChVGYkW_gdRiqhIS-8" value="" style="endArrow=none;html=1;rounded=0;entryX=0.5;entryY=1;entryDx=0;entryDy=0;exitX=0.5;exitY=0;exitDx=0;exitDy=0;" edge="1" parent="1" source="71Y_ChVGYkW_gdRiqhIS-3">
          <mxGeometry width="50" height="50" relative="1" as="geometry">
            <mxPoint x="570" y="350" as="sourcePoint" />
            <mxPoint x="539.5" y="320" as="targetPoint" />
          </mxGeometry>
        </mxCell>
        <mxCell id="71Y_ChVGYkW_gdRiqhIS-9" value="" style="endArrow=none;html=1;rounded=0;entryX=0.5;entryY=1;entryDx=0;entryDy=0;exitX=0.5;exitY=0;exitDx=0;exitDy=0;" edge="1" parent="1" source="71Y_ChVGYkW_gdRiqhIS-2">
          <mxGeometry width="50" height="50" relative="1" as="geometry">
            <mxPoint x="219.5" y="370" as="sourcePoint" />
            <mxPoint x="219.5" y="320" as="targetPoint" />
          </mxGeometry>
        </mxCell>
        <mxCell id="71Y_ChVGYkW_gdRiqhIS-10" value="" style="endArrow=none;html=1;rounded=0;entryX=0.5;entryY=1;entryDx=0;entryDy=0;" edge="1" parent="1" target="71Y_ChVGYkW_gdRiqhIS-2">
          <mxGeometry width="50" height="50" relative="1" as="geometry">
            <mxPoint x="220" y="710" as="sourcePoint" />
            <mxPoint x="220" y="550" as="targetPoint" />
          </mxGeometry>
        </mxCell>
        <mxCell id="71Y_ChVGYkW_gdRiqhIS-11" value="" style="endArrow=none;html=1;rounded=0;entryX=0.5;entryY=1;entryDx=0;entryDy=0;" edge="1" parent="1" target="71Y_ChVGYkW_gdRiqhIS-3">
          <mxGeometry width="50" height="50" relative="1" as="geometry">
            <mxPoint x="540" y="630" as="sourcePoint" />
            <mxPoint x="530" y="430" as="targetPoint" />
          </mxGeometry>
        </mxCell>
        <mxCell id="71Y_ChVGYkW_gdRiqhIS-12" value="" style="endArrow=none;html=1;rounded=0;entryX=0.5;entryY=1;entryDx=0;entryDy=0;" edge="1" parent="1" target="71Y_ChVGYkW_gdRiqhIS-4">
          <mxGeometry width="50" height="50" relative="1" as="geometry">
            <mxPoint x="860" y="630" as="sourcePoint" />
            <mxPoint x="859.5" y="450" as="targetPoint" />
          </mxGeometry>
        </mxCell>
        <mxCell id="71Y_ChVGYkW_gdRiqhIS-13" value="&lt;p style=&quot;text-align:left&quot; align=&quot;left&quot; class=&quot;MsoNormal&quot;&gt;Quản lý mượn&lt;/p&gt;" style="rounded=0;whiteSpace=wrap;html=1;" vertex="1" parent="1">
          <mxGeometry x="600" y="440" width="120" height="60" as="geometry" />
        </mxCell>
        <mxCell id="71Y_ChVGYkW_gdRiqhIS-14" value="&lt;p style=&quot;text-align:left&quot; align=&quot;left&quot; class=&quot;MsoNormal&quot;&gt;Quản lý trả&lt;/p&gt;" style="rounded=0;whiteSpace=wrap;html=1;" vertex="1" parent="1">
          <mxGeometry x="600" y="520" width="120" height="60" as="geometry" />
        </mxCell>
        <mxCell id="71Y_ChVGYkW_gdRiqhIS-15" value="Gia hạn" style="rounded=0;whiteSpace=wrap;html=1;" vertex="1" parent="1">
          <mxGeometry x="600" y="600" width="120" height="60" as="geometry" />
        </mxCell>
        <mxCell id="71Y_ChVGYkW_gdRiqhIS-16" value="Quản lý nhập sách" style="rounded=0;whiteSpace=wrap;html=1;" vertex="1" parent="1">
          <mxGeometry x="920" y="440" width="120" height="60" as="geometry" />
        </mxCell>
        <mxCell id="71Y_ChVGYkW_gdRiqhIS-17" value="&lt;p style=&quot;text-align:left&quot; align=&quot;left&quot; class=&quot;MsoNormal&quot;&gt;Thanh lọc&lt;/p&gt;" style="rounded=0;whiteSpace=wrap;html=1;" vertex="1" parent="1">
          <mxGeometry x="920" y="520" width="120" height="60" as="geometry" />
        </mxCell>
        <mxCell id="71Y_ChVGYkW_gdRiqhIS-18" value="Biên mục" style="rounded=0;whiteSpace=wrap;html=1;" vertex="1" parent="1">
          <mxGeometry x="920" y="600" width="120" height="60" as="geometry" />
        </mxCell>
        <mxCell id="71Y_ChVGYkW_gdRiqhIS-19" value="&lt;p style=&quot;&quot; class=&quot;MsoNormal&quot;&gt;Quản lý thông tin người dùng&lt;/p&gt;" style="rounded=0;whiteSpace=wrap;html=1;align=center;" vertex="1" parent="1">
          <mxGeometry x="280" y="440" width="120" height="60" as="geometry" />
        </mxCell>
        <mxCell id="71Y_ChVGYkW_gdRiqhIS-20" value="Thay đổi quyền người dùng" style="rounded=0;whiteSpace=wrap;html=1;" vertex="1" parent="1">
          <mxGeometry x="280" y="520" width="120" height="60" as="geometry" />
        </mxCell>
        <mxCell id="71Y_ChVGYkW_gdRiqhIS-21" value="&lt;p style=&quot;text-align:left&quot; align=&quot;left&quot; class=&quot;MsoNormal&quot;&gt;Reset mật khẩu&lt;/p&gt;" style="rounded=0;whiteSpace=wrap;html=1;" vertex="1" parent="1">
          <mxGeometry x="280" y="600" width="120" height="60" as="geometry" />
        </mxCell>
        <mxCell id="71Y_ChVGYkW_gdRiqhIS-25" value="&lt;p style=&quot;&quot; class=&quot;MsoNormal&quot;&gt;Xem lịch sử hoạt động&lt;/p&gt;" style="rounded=0;whiteSpace=wrap;html=1;align=center;" vertex="1" parent="1">
          <mxGeometry x="280" y="680" width="120" height="60" as="geometry" />
        </mxCell>
        <mxCell id="71Y_ChVGYkW_gdRiqhIS-30" value="" style="endArrow=none;html=1;rounded=0;entryX=0;entryY=0.5;entryDx=0;entryDy=0;" edge="1" parent="1" target="71Y_ChVGYkW_gdRiqhIS-19">
          <mxGeometry width="50" height="50" relative="1" as="geometry">
            <mxPoint x="220" y="470" as="sourcePoint" />
            <mxPoint x="270" y="470" as="targetPoint" />
          </mxGeometry>
        </mxCell>
        <mxCell id="71Y_ChVGYkW_gdRiqhIS-32" value="" style="endArrow=none;html=1;rounded=0;entryX=0;entryY=0.5;entryDx=0;entryDy=0;" edge="1" parent="1">
          <mxGeometry width="50" height="50" relative="1" as="geometry">
            <mxPoint x="220" y="549.5" as="sourcePoint" />
            <mxPoint x="280" y="549.5" as="targetPoint" />
          </mxGeometry>
        </mxCell>
        <mxCell id="71Y_ChVGYkW_gdRiqhIS-34" value="" style="endArrow=none;html=1;rounded=0;entryX=0;entryY=0.5;entryDx=0;entryDy=0;" edge="1" parent="1">
          <mxGeometry width="50" height="50" relative="1" as="geometry">
            <mxPoint x="220" y="629.5" as="sourcePoint" />
            <mxPoint x="280" y="629.5" as="targetPoint" />
          </mxGeometry>
        </mxCell>
        <mxCell id="71Y_ChVGYkW_gdRiqhIS-36" value="" style="endArrow=none;html=1;rounded=0;entryX=0;entryY=0.5;entryDx=0;entryDy=0;" edge="1" parent="1">
          <mxGeometry width="50" height="50" relative="1" as="geometry">
            <mxPoint x="220" y="709.5" as="sourcePoint" />
            <mxPoint x="280" y="709.5" as="targetPoint" />
          </mxGeometry>
        </mxCell>
        <mxCell id="71Y_ChVGYkW_gdRiqhIS-41" value="" style="endArrow=none;html=1;rounded=0;entryX=0;entryY=0.5;entryDx=0;entryDy=0;" edge="1" parent="1">
          <mxGeometry width="50" height="50" relative="1" as="geometry">
            <mxPoint x="540" y="469.5" as="sourcePoint" />
            <mxPoint x="600" y="469.5" as="targetPoint" />
          </mxGeometry>
        </mxCell>
        <mxCell id="71Y_ChVGYkW_gdRiqhIS-42" value="" style="endArrow=none;html=1;rounded=0;entryX=0;entryY=0.5;entryDx=0;entryDy=0;" edge="1" parent="1">
          <mxGeometry width="50" height="50" relative="1" as="geometry">
            <mxPoint x="540" y="549.5" as="sourcePoint" />
            <mxPoint x="600" y="549.5" as="targetPoint" />
          </mxGeometry>
        </mxCell>
        <mxCell id="71Y_ChVGYkW_gdRiqhIS-43" value="" style="endArrow=none;html=1;rounded=0;entryX=0;entryY=0.5;entryDx=0;entryDy=0;" edge="1" parent="1">
          <mxGeometry width="50" height="50" relative="1" as="geometry">
            <mxPoint x="540" y="630" as="sourcePoint" />
            <mxPoint x="600" y="630" as="targetPoint" />
          </mxGeometry>
        </mxCell>
        <mxCell id="71Y_ChVGYkW_gdRiqhIS-44" value="" style="endArrow=none;html=1;rounded=0;entryX=0;entryY=0.5;entryDx=0;entryDy=0;" edge="1" parent="1">
          <mxGeometry width="50" height="50" relative="1" as="geometry">
            <mxPoint x="860" y="629.5" as="sourcePoint" />
            <mxPoint x="920" y="629.5" as="targetPoint" />
          </mxGeometry>
        </mxCell>
        <mxCell id="71Y_ChVGYkW_gdRiqhIS-45" value="" style="endArrow=none;html=1;rounded=0;entryX=0;entryY=0.5;entryDx=0;entryDy=0;" edge="1" parent="1">
          <mxGeometry width="50" height="50" relative="1" as="geometry">
            <mxPoint x="860" y="549.5" as="sourcePoint" />
            <mxPoint x="920" y="549.5" as="targetPoint" />
          </mxGeometry>
        </mxCell>
        <mxCell id="71Y_ChVGYkW_gdRiqhIS-46" value="" style="endArrow=none;html=1;rounded=0;entryX=0;entryY=0.5;entryDx=0;entryDy=0;" edge="1" parent="1">
          <mxGeometry width="50" height="50" relative="1" as="geometry">
            <mxPoint x="860" y="469.5" as="sourcePoint" />
            <mxPoint x="920" y="469.5" as="targetPoint" />
          </mxGeometry>
        </mxCell>
        <mxCell id="71Y_ChVGYkW_gdRiqhIS-65" style="edgeStyle=orthogonalEdgeStyle;rounded=0;orthogonalLoop=1;jettySize=auto;html=1;endArrow=none;endFill=0;" edge="1" parent="1" source="71Y_ChVGYkW_gdRiqhIS-47">
          <mxGeometry relative="1" as="geometry">
            <mxPoint x="1180" y="320" as="targetPoint" />
          </mxGeometry>
        </mxCell>
        <mxCell id="71Y_ChVGYkW_gdRiqhIS-47" value="Quản lý bạn đọc" style="rounded=0;whiteSpace=wrap;html=1;" vertex="1" parent="1">
          <mxGeometry x="1120" y="360" width="120" height="60" as="geometry" />
        </mxCell>
        <mxCell id="71Y_ChVGYkW_gdRiqhIS-48" value="" style="endArrow=none;html=1;rounded=0;entryX=0.5;entryY=1;entryDx=0;entryDy=0;" edge="1" parent="1" target="71Y_ChVGYkW_gdRiqhIS-47">
          <mxGeometry width="50" height="50" relative="1" as="geometry">
            <mxPoint x="1180" y="630" as="sourcePoint" />
            <mxPoint x="1179.5" y="450" as="targetPoint" />
          </mxGeometry>
        </mxCell>
        <mxCell id="71Y_ChVGYkW_gdRiqhIS-49" value="Quản lý thông tin bạn đọc" style="rounded=0;whiteSpace=wrap;html=1;" vertex="1" parent="1">
          <mxGeometry x="1240" y="440" width="120" height="60" as="geometry" />
        </mxCell>
        <mxCell id="71Y_ChVGYkW_gdRiqhIS-50" value="&lt;p style=&quot;&quot; class=&quot;MsoNormal&quot;&gt;Quản lý vi phạm/ bồi thường&lt;/p&gt;" style="rounded=0;whiteSpace=wrap;html=1;align=center;" vertex="1" parent="1">
          <mxGeometry x="1240" y="520" width="120" height="60" as="geometry" />
        </mxCell>
        <mxCell id="71Y_ChVGYkW_gdRiqhIS-51" value="Tạo mới/cấp lại" style="rounded=0;whiteSpace=wrap;html=1;" vertex="1" parent="1">
          <mxGeometry x="1240" y="600" width="120" height="60" as="geometry" />
        </mxCell>
        <mxCell id="71Y_ChVGYkW_gdRiqhIS-52" value="" style="endArrow=none;html=1;rounded=0;entryX=0;entryY=0.5;entryDx=0;entryDy=0;" edge="1" parent="1">
          <mxGeometry width="50" height="50" relative="1" as="geometry">
            <mxPoint x="1180" y="629.5" as="sourcePoint" />
            <mxPoint x="1240" y="629.5" as="targetPoint" />
          </mxGeometry>
        </mxCell>
        <mxCell id="71Y_ChVGYkW_gdRiqhIS-53" value="" style="endArrow=none;html=1;rounded=0;entryX=0;entryY=0.5;entryDx=0;entryDy=0;" edge="1" parent="1">
          <mxGeometry width="50" height="50" relative="1" as="geometry">
            <mxPoint x="1180" y="549.5" as="sourcePoint" />
            <mxPoint x="1240" y="549.5" as="targetPoint" />
          </mxGeometry>
        </mxCell>
        <mxCell id="71Y_ChVGYkW_gdRiqhIS-54" value="" style="endArrow=none;html=1;rounded=0;entryX=0;entryY=0.5;entryDx=0;entryDy=0;" edge="1" parent="1">
          <mxGeometry width="50" height="50" relative="1" as="geometry">
            <mxPoint x="1180" y="469.5" as="sourcePoint" />
            <mxPoint x="1240" y="469.5" as="targetPoint" />
          </mxGeometry>
        </mxCell>
        <mxCell id="71Y_ChVGYkW_gdRiqhIS-64" style="edgeStyle=orthogonalEdgeStyle;rounded=0;orthogonalLoop=1;jettySize=auto;html=1;endArrow=none;endFill=0;" edge="1" parent="1" source="71Y_ChVGYkW_gdRiqhIS-55">
          <mxGeometry relative="1" as="geometry">
            <mxPoint x="1499.9999999999995" y="320" as="targetPoint" />
          </mxGeometry>
        </mxCell>
        <mxCell id="71Y_ChVGYkW_gdRiqhIS-55" value="Báo cáo&amp;nbsp;" style="rounded=0;whiteSpace=wrap;html=1;" vertex="1" parent="1">
          <mxGeometry x="1440" y="360" width="120" height="60" as="geometry" />
        </mxCell>
        <mxCell id="71Y_ChVGYkW_gdRiqhIS-56" value="" style="endArrow=none;html=1;rounded=0;entryX=0.5;entryY=1;entryDx=0;entryDy=0;" edge="1" target="71Y_ChVGYkW_gdRiqhIS-55" parent="1">
          <mxGeometry width="50" height="50" relative="1" as="geometry">
            <mxPoint x="1500" y="630" as="sourcePoint" />
            <mxPoint x="1499.5" y="450" as="targetPoint" />
          </mxGeometry>
        </mxCell>
        <mxCell id="71Y_ChVGYkW_gdRiqhIS-57" value="In báo cáo&amp;nbsp;" style="rounded=0;whiteSpace=wrap;html=1;" vertex="1" parent="1">
          <mxGeometry x="1560" y="440" width="120" height="60" as="geometry" />
        </mxCell>
        <mxCell id="71Y_ChVGYkW_gdRiqhIS-58" value="&lt;p style=&quot;&quot; class=&quot;MsoNormal&quot;&gt;Báo cáo vi phạm&lt;/p&gt;" style="rounded=0;whiteSpace=wrap;html=1;align=center;" vertex="1" parent="1">
          <mxGeometry x="1560" y="520" width="120" height="60" as="geometry" />
        </mxCell>
        <mxCell id="71Y_ChVGYkW_gdRiqhIS-59" value="Báo cáo định kì" style="rounded=0;whiteSpace=wrap;html=1;" vertex="1" parent="1">
          <mxGeometry x="1560" y="600" width="120" height="60" as="geometry" />
        </mxCell>
        <mxCell id="71Y_ChVGYkW_gdRiqhIS-60" value="" style="endArrow=none;html=1;rounded=0;entryX=0;entryY=0.5;entryDx=0;entryDy=0;" edge="1" parent="1">
          <mxGeometry width="50" height="50" relative="1" as="geometry">
            <mxPoint x="1500" y="629.5" as="sourcePoint" />
            <mxPoint x="1560" y="629.5" as="targetPoint" />
          </mxGeometry>
        </mxCell>
        <mxCell id="71Y_ChVGYkW_gdRiqhIS-61" value="" style="endArrow=none;html=1;rounded=0;entryX=0;entryY=0.5;entryDx=0;entryDy=0;" edge="1" parent="1">
          <mxGeometry width="50" height="50" relative="1" as="geometry">
            <mxPoint x="1500" y="549.5" as="sourcePoint" />
            <mxPoint x="1560" y="549.5" as="targetPoint" />
          </mxGeometry>
        </mxCell>
        <mxCell id="71Y_ChVGYkW_gdRiqhIS-62" value="" style="endArrow=none;html=1;rounded=0;entryX=0;entryY=0.5;entryDx=0;entryDy=0;" edge="1" parent="1">
          <mxGeometry width="50" height="50" relative="1" as="geometry">
            <mxPoint x="1500" y="469.5" as="sourcePoint" />
            <mxPoint x="1560" y="469.5" as="targetPoint" />
          </mxGeometry>
        </mxCell>
        <mxCell id="71Y_ChVGYkW_gdRiqhIS-66" value="" style="endArrow=none;html=1;rounded=0;entryX=0.5;entryY=1;entryDx=0;entryDy=0;" edge="1" target="71Y_ChVGYkW_gdRiqhIS-67" parent="1">
          <mxGeometry width="50" height="50" relative="1" as="geometry">
            <mxPoint x="880" y="320" as="sourcePoint" />
            <mxPoint x="890" y="280" as="targetPoint" />
          </mxGeometry>
        </mxCell>
        <mxCell id="71Y_ChVGYkW_gdRiqhIS-67" value="&lt;font style=&quot;font-size: 12px;&quot;&gt;Quản&lt;br&gt;lý &lt;span style=&quot;font-family: &amp;quot;Times New Roman&amp;quot;, serif;&quot; lang=&quot;VI&quot;&gt;thư viện&lt;br&gt;trường đại học&lt;/span&gt;&lt;/font&gt;" style="rounded=0;whiteSpace=wrap;html=1;" vertex="1" parent="1">
          <mxGeometry x="820" y="200" width="120" height="60" as="geometry" />
        </mxCell>
      </root>
    </mxGraphModel>
  </diagram>
  <diagram id="HxPDrGOozpdDiwxils2m" name="cấp mới">
    <mxGraphModel dx="2206" dy="1366" grid="1" gridSize="10" guides="1" tooltips="1" connect="1" arrows="1" fold="1" page="1" pageScale="1" pageWidth="1169" pageHeight="1654" math="0" shadow="0">
      <root>
        <mxCell id="0" />
        <mxCell id="1" parent="0" />
        <mxCell id="w2hb0WhD_prw_zY9LiA2-1" value="" style="rounded=0;whiteSpace=wrap;html=1;fillColor=#d5e8d4;strokeColor=#82b366;" vertex="1" parent="1">
          <mxGeometry width="960" height="530" as="geometry" />
        </mxCell>
        <mxCell id="w2hb0WhD_prw_zY9LiA2-2" value="" style="rounded=0;whiteSpace=wrap;html=1;fillColor=#dae8fc;strokeColor=#6c8ebf;" vertex="1" parent="1">
          <mxGeometry width="960" height="50" as="geometry" />
        </mxCell>
        <mxCell id="w2hb0WhD_prw_zY9LiA2-3" value="" style="rounded=0;whiteSpace=wrap;html=1;fillColor=#e51400;fontColor=#ffffff;strokeColor=#B20000;" vertex="1" parent="1">
          <mxGeometry x="910" width="50" height="50" as="geometry" />
        </mxCell>
        <mxCell id="w2hb0WhD_prw_zY9LiA2-4" value="" style="rounded=0;whiteSpace=wrap;html=1;" vertex="1" parent="1">
          <mxGeometry x="860" width="50" height="50" as="geometry" />
        </mxCell>
        <mxCell id="w2hb0WhD_prw_zY9LiA2-5" value="" style="rounded=0;whiteSpace=wrap;html=1;fillColor=#e3c800;fontColor=#000000;strokeColor=#B09500;" vertex="1" parent="1">
          <mxGeometry x="810" width="50" height="50" as="geometry" />
        </mxCell>
        <mxCell id="w2hb0WhD_prw_zY9LiA2-6" value="" style="endArrow=none;html=1;rounded=0;" edge="1" parent="1">
          <mxGeometry width="50" height="50" relative="1" as="geometry">
            <mxPoint x="910" y="50" as="sourcePoint" />
            <mxPoint x="960" as="targetPoint" />
          </mxGeometry>
        </mxCell>
        <mxCell id="w2hb0WhD_prw_zY9LiA2-7" value="" style="endArrow=none;html=1;rounded=0;exitX=1;exitY=0;exitDx=0;exitDy=0;entryX=1;entryY=1;entryDx=0;entryDy=0;" edge="1" parent="1" source="w2hb0WhD_prw_zY9LiA2-4" target="w2hb0WhD_prw_zY9LiA2-3">
          <mxGeometry width="50" height="50" relative="1" as="geometry">
            <mxPoint x="820" y="120.00000000000001" as="sourcePoint" />
            <mxPoint x="930" y="131.45" as="targetPoint" />
          </mxGeometry>
        </mxCell>
        <mxCell id="w2hb0WhD_prw_zY9LiA2-8" value="" style="endArrow=none;html=1;rounded=0;entryX=1;entryY=0.5;entryDx=0;entryDy=0;exitX=0;exitY=0.5;exitDx=0;exitDy=0;" edge="1" parent="1" source="w2hb0WhD_prw_zY9LiA2-5" target="w2hb0WhD_prw_zY9LiA2-5">
          <mxGeometry width="50" height="50" relative="1" as="geometry">
            <mxPoint x="790" y="75" as="sourcePoint" />
            <mxPoint x="850" y="30" as="targetPoint" />
          </mxGeometry>
        </mxCell>
        <mxCell id="w2hb0WhD_prw_zY9LiA2-9" value="" style="whiteSpace=wrap;html=1;aspect=fixed;" vertex="1" parent="1">
          <mxGeometry x="860" y="10" width="40" height="40" as="geometry" />
        </mxCell>
        <mxCell id="w2hb0WhD_prw_zY9LiA2-10" value="" style="whiteSpace=wrap;html=1;aspect=fixed;" vertex="1" parent="1">
          <mxGeometry x="860" y="30" width="20" height="20" as="geometry" />
        </mxCell>
        <mxCell id="0qYPFjlo2dcQA6HrtDIR-1" value="&lt;font color=&quot;#ffff66&quot; style=&quot;font-size: 23px;&quot;&gt;THƯ VIỆN HỌC VIỆN KỸ THUẬT QUÂN SỰ&lt;/font&gt;" style="rounded=0;whiteSpace=wrap;html=1;fillColor=#e51400;fontColor=#ffffff;strokeColor=#B20000;" vertex="1" parent="1">
          <mxGeometry x="130" width="570" height="50" as="geometry" />
        </mxCell>
        <mxCell id="0qYPFjlo2dcQA6HrtDIR-3" value="" style="rounded=0;whiteSpace=wrap;html=1;" vertex="1" parent="1">
          <mxGeometry y="130" width="960" height="348" as="geometry" />
        </mxCell>
        <mxCell id="6m-absxxOKul8t2yaAgc-1" value="&lt;font style=&quot;font-size: 20px;&quot;&gt;Quản lý mượn trả&lt;/font&gt;" style="rounded=1;whiteSpace=wrap;html=1;fillColor=#b1ddf0;strokeColor=#10739e;" vertex="1" parent="1">
          <mxGeometry y="50" width="220" height="50" as="geometry" />
        </mxCell>
        <mxCell id="6m-absxxOKul8t2yaAgc-2" value="&lt;font style=&quot;font-size: 20px;&quot;&gt;Quản lý sách&lt;/font&gt;" style="rounded=1;whiteSpace=wrap;html=1;fillColor=#b1ddf0;strokeColor=#10739e;" vertex="1" parent="1">
          <mxGeometry x="250" y="50" width="220" height="50" as="geometry" />
        </mxCell>
        <mxCell id="6m-absxxOKul8t2yaAgc-3" value="&lt;font style=&quot;font-size: 20px;&quot;&gt;Quản lý bạn đọc&lt;/font&gt;" style="rounded=1;whiteSpace=wrap;html=1;fillColor=#0050ef;strokeColor=#001DBC;fontColor=#ffffff;" vertex="1" parent="1">
          <mxGeometry x="500" y="50" width="220" height="50" as="geometry" />
        </mxCell>
        <mxCell id="6m-absxxOKul8t2yaAgc-4" value="&lt;font style=&quot;font-size: 20px;&quot;&gt;Báo cáo&lt;/font&gt;" style="rounded=1;whiteSpace=wrap;html=1;fillColor=#b1ddf0;strokeColor=#10739e;" vertex="1" parent="1">
          <mxGeometry x="740" y="50" width="220" height="50" as="geometry" />
        </mxCell>
        <mxCell id="JDe3R-_R04DYU-8ZiFyt-1" value="&lt;font style=&quot;font-size: 20px;&quot;&gt;Quản lý thông tin bạn đọc&lt;/font&gt;" style="rounded=1;whiteSpace=wrap;html=1;fillColor=#b1ddf0;strokeColor=#10739e;" vertex="1" parent="1">
          <mxGeometry y="190" width="220" height="50" as="geometry" />
        </mxCell>
        <mxCell id="ynWlJ2V9K6h5ooK3MD7i-1" value="&lt;span style=&quot;font-size: 20px;&quot;&gt;Quản lý vi phạm / bồi thường&lt;/span&gt;" style="rounded=1;whiteSpace=wrap;html=1;fillColor=#b1ddf0;strokeColor=#10739e;" vertex="1" parent="1">
          <mxGeometry y="270" width="220" height="50" as="geometry" />
        </mxCell>
        <mxCell id="ynWlJ2V9K6h5ooK3MD7i-2" value="&lt;span style=&quot;font-size: 20px;&quot;&gt;Tạo mới/cấp lại&lt;/span&gt;" style="rounded=1;whiteSpace=wrap;html=1;fillColor=#0050ef;strokeColor=#001DBC;fontColor=#ffffff;" vertex="1" parent="1">
          <mxGeometry y="350" width="220" height="50" as="geometry" />
        </mxCell>
        <mxCell id="JFGDF65N-n9D_ROTiz4x-1" value="" style="rounded=0;whiteSpace=wrap;html=1;" vertex="1" parent="1">
          <mxGeometry x="525" y="200" width="355" height="40" as="geometry" />
        </mxCell>
        <mxCell id="JFGDF65N-n9D_ROTiz4x-2" value="" style="rounded=0;whiteSpace=wrap;html=1;" vertex="1" parent="1">
          <mxGeometry x="525" y="150" width="355" height="40" as="geometry" />
        </mxCell>
        <mxCell id="JFGDF65N-n9D_ROTiz4x-3" value="&lt;font style=&quot;font-size: 15px;&quot;&gt;Họ tên&lt;/font&gt;" style="text;html=1;align=center;verticalAlign=middle;resizable=0;points=[];autosize=1;strokeColor=none;fillColor=none;" vertex="1" parent="1">
          <mxGeometry x="390" y="155" width="70" height="30" as="geometry" />
        </mxCell>
        <mxCell id="JFGDF65N-n9D_ROTiz4x-4" value="&lt;font style=&quot;font-size: 15px;&quot;&gt;Ngày sinh&lt;/font&gt;" style="text;html=1;align=center;verticalAlign=middle;resizable=0;points=[];autosize=1;strokeColor=none;fillColor=none;" vertex="1" parent="1">
          <mxGeometry x="380" y="200" width="90" height="30" as="geometry" />
        </mxCell>
        <mxCell id="JFGDF65N-n9D_ROTiz4x-5" value="&lt;font style=&quot;font-size: 15px;&quot;&gt;khóa học&lt;/font&gt;" style="text;html=1;align=center;verticalAlign=middle;resizable=0;points=[];autosize=1;strokeColor=none;fillColor=none;" vertex="1" parent="1">
          <mxGeometry x="385" y="255" width="80" height="30" as="geometry" />
        </mxCell>
        <mxCell id="JFGDF65N-n9D_ROTiz4x-6" value="&lt;font style=&quot;font-size: 15px;&quot;&gt;số điện thoại&lt;/font&gt;" style="text;html=1;align=center;verticalAlign=middle;resizable=0;points=[];autosize=1;strokeColor=none;fillColor=none;" vertex="1" parent="1">
          <mxGeometry x="370" y="315" width="110" height="30" as="geometry" />
        </mxCell>
        <mxCell id="JFGDF65N-n9D_ROTiz4x-7" value="&lt;font style=&quot;font-size: 15px;&quot;&gt;Email&lt;/font&gt;" style="text;html=1;align=center;verticalAlign=middle;resizable=0;points=[];autosize=1;strokeColor=none;fillColor=none;" vertex="1" parent="1">
          <mxGeometry x="400" y="365" width="60" height="30" as="geometry" />
        </mxCell>
        <mxCell id="JFGDF65N-n9D_ROTiz4x-8" value="&lt;font style=&quot;font-size: 15px;&quot;&gt;Đơn vị&lt;/font&gt;" style="text;html=1;align=center;verticalAlign=middle;resizable=0;points=[];autosize=1;strokeColor=none;fillColor=none;" vertex="1" parent="1">
          <mxGeometry x="695" y="255" width="70" height="30" as="geometry" />
        </mxCell>
        <mxCell id="JFGDF65N-n9D_ROTiz4x-9" value="" style="rounded=0;whiteSpace=wrap;html=1;" vertex="1" parent="1">
          <mxGeometry x="525" y="250" width="175" height="40" as="geometry" />
        </mxCell>
        <mxCell id="JFGDF65N-n9D_ROTiz4x-10" value="" style="rounded=0;whiteSpace=wrap;html=1;" vertex="1" parent="1">
          <mxGeometry x="765" y="250" width="115" height="40" as="geometry" />
        </mxCell>
        <mxCell id="JFGDF65N-n9D_ROTiz4x-11" value="" style="rounded=0;whiteSpace=wrap;html=1;" vertex="1" parent="1">
          <mxGeometry x="525" y="310" width="355" height="40" as="geometry" />
        </mxCell>
        <mxCell id="JFGDF65N-n9D_ROTiz4x-12" value="" style="rounded=0;whiteSpace=wrap;html=1;" vertex="1" parent="1">
          <mxGeometry x="525" y="360" width="355" height="40" as="geometry" />
        </mxCell>
        <mxCell id="JFGDF65N-n9D_ROTiz4x-14" value="&lt;span style=&quot;font-size: 20px;&quot;&gt;Tạo mới&lt;/span&gt;" style="rounded=1;whiteSpace=wrap;html=1;fillColor=#b1ddf0;strokeColor=#10739e;" vertex="1" parent="1">
          <mxGeometry x="567.5" y="410" width="120" height="50" as="geometry" />
        </mxCell>
        <mxCell id="JFGDF65N-n9D_ROTiz4x-15" value="&lt;span style=&quot;font-size: 20px;&quot;&gt;Cấp lại&lt;/span&gt;" style="rounded=1;whiteSpace=wrap;html=1;fillColor=#b1ddf0;strokeColor=#10739e;" vertex="1" parent="1">
          <mxGeometry x="717.5" y="410" width="120" height="50" as="geometry" />
        </mxCell>
        <mxCell id="c8mlroxsVb0hbnhgIH1k-1" value="&lt;font style=&quot;font-size: 23px;&quot;&gt;thanh trạng thái&amp;nbsp; &amp;nbsp; &amp;nbsp; &amp;nbsp; &amp;nbsp; &amp;nbsp; &amp;nbsp; &amp;nbsp; &amp;nbsp; &amp;nbsp; &amp;nbsp; &amp;nbsp; &amp;nbsp; &amp;nbsp; &amp;nbsp; &amp;nbsp; &amp;nbsp; &amp;nbsp; &amp;nbsp; &amp;nbsp; &amp;nbsp; &amp;nbsp; &amp;nbsp; Người đăng nhập: VÕ QUỐC HUY&amp;nbsp;&lt;/font&gt;" style="rounded=0;whiteSpace=wrap;html=1;align=left;" vertex="1" parent="1">
          <mxGeometry y="490" width="960" height="40" as="geometry" />
        </mxCell>
      </root>
    </mxGraphModel>
  </diagram>
  <diagram id="Xn2z3HyHS2XG9bPnEas4" name="Page-4">
    <mxGraphModel dx="1687" dy="1045" grid="1" gridSize="10" guides="1" tooltips="1" connect="1" arrows="1" fold="1" page="1" pageScale="1" pageWidth="1169" pageHeight="1654" math="0" shadow="0">
      <root>
        <mxCell id="0" />
        <mxCell id="1" parent="0" />
        <mxCell id="4KHt5TfQus5MPm5WqTeF-1" value="" style="ellipse;html=1;shape=startState;fillColor=#000000;strokeColor=#ff0000;" vertex="1" parent="1">
          <mxGeometry x="540" y="70" width="30" height="30" as="geometry" />
        </mxCell>
        <mxCell id="4KHt5TfQus5MPm5WqTeF-2" value="" style="edgeStyle=orthogonalEdgeStyle;html=1;verticalAlign=bottom;endArrow=open;endSize=8;strokeColor=#ff0000;rounded=0;" edge="1" source="4KHt5TfQus5MPm5WqTeF-1" parent="1">
          <mxGeometry relative="1" as="geometry">
            <mxPoint x="555" y="160" as="targetPoint" />
          </mxGeometry>
        </mxCell>
        <mxCell id="EXliIsra4P1dWSOtNQ_S-10" style="edgeStyle=orthogonalEdgeStyle;rounded=0;orthogonalLoop=1;jettySize=auto;html=1;entryX=0.5;entryY=0;entryDx=0;entryDy=0;" edge="1" parent="1" source="EXliIsra4P1dWSOtNQ_S-1" target="EXliIsra4P1dWSOtNQ_S-2">
          <mxGeometry relative="1" as="geometry" />
        </mxCell>
        <mxCell id="EXliIsra4P1dWSOtNQ_S-1" value="Nhập họ và tên" style="rounded=0;whiteSpace=wrap;html=1;" vertex="1" parent="1">
          <mxGeometry x="490" y="160" width="130" height="50" as="geometry" />
        </mxCell>
        <mxCell id="EXliIsra4P1dWSOtNQ_S-11" style="edgeStyle=orthogonalEdgeStyle;rounded=0;orthogonalLoop=1;jettySize=auto;html=1;entryX=0.5;entryY=0;entryDx=0;entryDy=0;" edge="1" parent="1" source="EXliIsra4P1dWSOtNQ_S-2" target="EXliIsra4P1dWSOtNQ_S-3">
          <mxGeometry relative="1" as="geometry" />
        </mxCell>
        <mxCell id="EXliIsra4P1dWSOtNQ_S-2" value="Chọn ngày sinh" style="rounded=0;whiteSpace=wrap;html=1;" vertex="1" parent="1">
          <mxGeometry x="490" y="280" width="130" height="50" as="geometry" />
        </mxCell>
        <mxCell id="EXliIsra4P1dWSOtNQ_S-12" style="edgeStyle=orthogonalEdgeStyle;rounded=0;orthogonalLoop=1;jettySize=auto;html=1;entryX=0.5;entryY=0;entryDx=0;entryDy=0;" edge="1" parent="1" source="EXliIsra4P1dWSOtNQ_S-3" target="EXliIsra4P1dWSOtNQ_S-4">
          <mxGeometry relative="1" as="geometry" />
        </mxCell>
        <mxCell id="EXliIsra4P1dWSOtNQ_S-3" value="Chọn khóa học" style="rounded=0;whiteSpace=wrap;html=1;" vertex="1" parent="1">
          <mxGeometry x="490" y="400" width="130" height="50" as="geometry" />
        </mxCell>
        <mxCell id="EXliIsra4P1dWSOtNQ_S-13" style="edgeStyle=orthogonalEdgeStyle;rounded=0;orthogonalLoop=1;jettySize=auto;html=1;entryX=0.5;entryY=0;entryDx=0;entryDy=0;" edge="1" parent="1" source="EXliIsra4P1dWSOtNQ_S-4" target="EXliIsra4P1dWSOtNQ_S-5">
          <mxGeometry relative="1" as="geometry" />
        </mxCell>
        <mxCell id="EXliIsra4P1dWSOtNQ_S-15" style="edgeStyle=orthogonalEdgeStyle;rounded=0;orthogonalLoop=1;jettySize=auto;html=1;entryX=0.5;entryY=0;entryDx=0;entryDy=0;" edge="1" parent="1" source="EXliIsra4P1dWSOtNQ_S-4" target="EXliIsra4P1dWSOtNQ_S-7">
          <mxGeometry relative="1" as="geometry" />
        </mxCell>
        <mxCell id="EXliIsra4P1dWSOtNQ_S-4" value="Nhập số điện thoạt" style="rounded=0;whiteSpace=wrap;html=1;" vertex="1" parent="1">
          <mxGeometry x="490" y="520" width="130" height="50" as="geometry" />
        </mxCell>
        <mxCell id="EXliIsra4P1dWSOtNQ_S-16" style="edgeStyle=orthogonalEdgeStyle;rounded=0;orthogonalLoop=1;jettySize=auto;html=1;entryX=0.5;entryY=0;entryDx=0;entryDy=0;" edge="1" parent="1" source="EXliIsra4P1dWSOtNQ_S-5" target="EXliIsra4P1dWSOtNQ_S-6">
          <mxGeometry relative="1" as="geometry" />
        </mxCell>
        <mxCell id="EXliIsra4P1dWSOtNQ_S-5" value="Nhập Email" style="rounded=0;whiteSpace=wrap;html=1;" vertex="1" parent="1">
          <mxGeometry x="490" y="640" width="130" height="50" as="geometry" />
        </mxCell>
        <mxCell id="EXliIsra4P1dWSOtNQ_S-18" style="edgeStyle=orthogonalEdgeStyle;rounded=0;orthogonalLoop=1;jettySize=auto;html=1;entryX=0.5;entryY=0;entryDx=0;entryDy=0;" edge="1" parent="1" source="EXliIsra4P1dWSOtNQ_S-6" target="EXliIsra4P1dWSOtNQ_S-8">
          <mxGeometry relative="1" as="geometry" />
        </mxCell>
        <mxCell id="EXliIsra4P1dWSOtNQ_S-6" value="Nhấn nút tạo mới" style="rounded=0;whiteSpace=wrap;html=1;" vertex="1" parent="1">
          <mxGeometry x="350" y="760" width="130" height="50" as="geometry" />
        </mxCell>
        <mxCell id="EXliIsra4P1dWSOtNQ_S-19" style="edgeStyle=orthogonalEdgeStyle;rounded=0;orthogonalLoop=1;jettySize=auto;html=1;entryX=0.5;entryY=0;entryDx=0;entryDy=0;" edge="1" parent="1" source="EXliIsra4P1dWSOtNQ_S-7" target="EXliIsra4P1dWSOtNQ_S-17">
          <mxGeometry relative="1" as="geometry" />
        </mxCell>
        <mxCell id="EXliIsra4P1dWSOtNQ_S-7" value="Nhấn nút cấp lại" style="rounded=0;whiteSpace=wrap;html=1;" vertex="1" parent="1">
          <mxGeometry x="630" y="760" width="130" height="50" as="geometry" />
        </mxCell>
        <mxCell id="EXliIsra4P1dWSOtNQ_S-8" value="" style="ellipse;html=1;shape=endState;fillColor=#000000;strokeColor=#ff0000;" vertex="1" parent="1">
          <mxGeometry x="400" y="890" width="30" height="30" as="geometry" />
        </mxCell>
        <mxCell id="EXliIsra4P1dWSOtNQ_S-17" value="" style="ellipse;html=1;shape=endState;fillColor=#000000;strokeColor=#ff0000;" vertex="1" parent="1">
          <mxGeometry x="680" y="880" width="30" height="30" as="geometry" />
        </mxCell>
      </root>
    </mxGraphModel>
  </diagram>
  <diagram id="SqZ71PupsKDnRK3nmLwd" name="quản lý mượn">
    <mxGraphModel dx="2607" dy="1615" grid="1" gridSize="10" guides="1" tooltips="1" connect="1" arrows="1" fold="1" page="1" pageScale="1" pageWidth="1169" pageHeight="1654" math="0" shadow="0">
      <root>
        <mxCell id="0" />
        <mxCell id="1" parent="0" />
        <mxCell id="2PVJ25KuIUvHPl7iZlEB-1" value="" style="rounded=0;whiteSpace=wrap;html=1;fillColor=#d5e8d4;strokeColor=#82b366;" vertex="1" parent="1">
          <mxGeometry width="960" height="510" as="geometry" />
        </mxCell>
        <mxCell id="2PVJ25KuIUvHPl7iZlEB-2" value="" style="rounded=0;whiteSpace=wrap;html=1;fillColor=#dae8fc;strokeColor=#6c8ebf;" vertex="1" parent="1">
          <mxGeometry width="960" height="50" as="geometry" />
        </mxCell>
        <mxCell id="2PVJ25KuIUvHPl7iZlEB-3" value="" style="rounded=0;whiteSpace=wrap;html=1;fillColor=#e51400;fontColor=#ffffff;strokeColor=#B20000;" vertex="1" parent="1">
          <mxGeometry x="910" width="50" height="50" as="geometry" />
        </mxCell>
        <mxCell id="2PVJ25KuIUvHPl7iZlEB-4" value="" style="rounded=0;whiteSpace=wrap;html=1;" vertex="1" parent="1">
          <mxGeometry x="860" width="50" height="50" as="geometry" />
        </mxCell>
        <mxCell id="2PVJ25KuIUvHPl7iZlEB-5" value="" style="rounded=0;whiteSpace=wrap;html=1;fillColor=#e3c800;fontColor=#000000;strokeColor=#B09500;" vertex="1" parent="1">
          <mxGeometry x="810" width="50" height="50" as="geometry" />
        </mxCell>
        <mxCell id="2PVJ25KuIUvHPl7iZlEB-6" value="" style="endArrow=none;html=1;rounded=0;" edge="1" parent="1">
          <mxGeometry width="50" height="50" relative="1" as="geometry">
            <mxPoint x="910" y="50" as="sourcePoint" />
            <mxPoint x="960" as="targetPoint" />
          </mxGeometry>
        </mxCell>
        <mxCell id="2PVJ25KuIUvHPl7iZlEB-7" value="" style="endArrow=none;html=1;rounded=0;exitX=1;exitY=0;exitDx=0;exitDy=0;entryX=1;entryY=1;entryDx=0;entryDy=0;" edge="1" parent="1" source="2PVJ25KuIUvHPl7iZlEB-4" target="2PVJ25KuIUvHPl7iZlEB-3">
          <mxGeometry width="50" height="50" relative="1" as="geometry">
            <mxPoint x="820" y="120.00000000000001" as="sourcePoint" />
            <mxPoint x="930" y="131.45" as="targetPoint" />
          </mxGeometry>
        </mxCell>
        <mxCell id="2PVJ25KuIUvHPl7iZlEB-8" value="" style="endArrow=none;html=1;rounded=0;entryX=1;entryY=0.5;entryDx=0;entryDy=0;exitX=0;exitY=0.5;exitDx=0;exitDy=0;" edge="1" parent="1" source="2PVJ25KuIUvHPl7iZlEB-5" target="2PVJ25KuIUvHPl7iZlEB-5">
          <mxGeometry width="50" height="50" relative="1" as="geometry">
            <mxPoint x="790" y="75" as="sourcePoint" />
            <mxPoint x="850" y="30" as="targetPoint" />
          </mxGeometry>
        </mxCell>
        <mxCell id="2PVJ25KuIUvHPl7iZlEB-9" value="" style="whiteSpace=wrap;html=1;aspect=fixed;" vertex="1" parent="1">
          <mxGeometry x="860" y="10" width="40" height="40" as="geometry" />
        </mxCell>
        <mxCell id="2PVJ25KuIUvHPl7iZlEB-10" value="" style="whiteSpace=wrap;html=1;aspect=fixed;" vertex="1" parent="1">
          <mxGeometry x="860" y="30" width="20" height="20" as="geometry" />
        </mxCell>
        <mxCell id="tTjc2lvlWBBuWy-vFHms-1" value="" style="rounded=0;whiteSpace=wrap;html=1;fillColor=#d5e8d4;strokeColor=#82b366;" vertex="1" parent="1">
          <mxGeometry width="960" height="530" as="geometry" />
        </mxCell>
        <mxCell id="tTjc2lvlWBBuWy-vFHms-2" value="" style="rounded=0;whiteSpace=wrap;html=1;fillColor=#dae8fc;strokeColor=#6c8ebf;" vertex="1" parent="1">
          <mxGeometry width="960" height="50" as="geometry" />
        </mxCell>
        <mxCell id="tTjc2lvlWBBuWy-vFHms-3" value="" style="rounded=0;whiteSpace=wrap;html=1;fillColor=#e51400;fontColor=#ffffff;strokeColor=#B20000;" vertex="1" parent="1">
          <mxGeometry x="910" width="50" height="50" as="geometry" />
        </mxCell>
        <mxCell id="tTjc2lvlWBBuWy-vFHms-4" value="" style="rounded=0;whiteSpace=wrap;html=1;" vertex="1" parent="1">
          <mxGeometry x="860" width="50" height="50" as="geometry" />
        </mxCell>
        <mxCell id="tTjc2lvlWBBuWy-vFHms-5" value="" style="rounded=0;whiteSpace=wrap;html=1;fillColor=#e3c800;fontColor=#000000;strokeColor=#B09500;" vertex="1" parent="1">
          <mxGeometry x="810" width="50" height="50" as="geometry" />
        </mxCell>
        <mxCell id="tTjc2lvlWBBuWy-vFHms-6" value="" style="endArrow=none;html=1;rounded=0;" edge="1" parent="1">
          <mxGeometry width="50" height="50" relative="1" as="geometry">
            <mxPoint x="910" y="50" as="sourcePoint" />
            <mxPoint x="960" as="targetPoint" />
          </mxGeometry>
        </mxCell>
        <mxCell id="tTjc2lvlWBBuWy-vFHms-7" value="" style="endArrow=none;html=1;rounded=0;exitX=1;exitY=0;exitDx=0;exitDy=0;entryX=1;entryY=1;entryDx=0;entryDy=0;" edge="1" parent="1" source="tTjc2lvlWBBuWy-vFHms-4" target="tTjc2lvlWBBuWy-vFHms-3">
          <mxGeometry width="50" height="50" relative="1" as="geometry">
            <mxPoint x="820" y="120.00000000000001" as="sourcePoint" />
            <mxPoint x="930" y="131.45" as="targetPoint" />
          </mxGeometry>
        </mxCell>
        <mxCell id="tTjc2lvlWBBuWy-vFHms-8" value="" style="endArrow=none;html=1;rounded=0;entryX=1;entryY=0.5;entryDx=0;entryDy=0;exitX=0;exitY=0.5;exitDx=0;exitDy=0;" edge="1" parent="1" source="tTjc2lvlWBBuWy-vFHms-5" target="tTjc2lvlWBBuWy-vFHms-5">
          <mxGeometry width="50" height="50" relative="1" as="geometry">
            <mxPoint x="790" y="75" as="sourcePoint" />
            <mxPoint x="850" y="30" as="targetPoint" />
          </mxGeometry>
        </mxCell>
        <mxCell id="tTjc2lvlWBBuWy-vFHms-9" value="" style="whiteSpace=wrap;html=1;aspect=fixed;" vertex="1" parent="1">
          <mxGeometry x="860" y="10" width="40" height="40" as="geometry" />
        </mxCell>
        <mxCell id="tTjc2lvlWBBuWy-vFHms-10" value="" style="whiteSpace=wrap;html=1;aspect=fixed;" vertex="1" parent="1">
          <mxGeometry x="860" y="30" width="20" height="20" as="geometry" />
        </mxCell>
        <mxCell id="tTjc2lvlWBBuWy-vFHms-11" value="&lt;font color=&quot;#ffff66&quot; style=&quot;font-size: 23px;&quot;&gt;THƯ VIỆN HỌC VIỆN KỸ THUẬT QUÂN SỰ&lt;/font&gt;" style="rounded=0;whiteSpace=wrap;html=1;fillColor=#e51400;fontColor=#ffffff;strokeColor=#B20000;" vertex="1" parent="1">
          <mxGeometry x="130" width="570" height="50" as="geometry" />
        </mxCell>
        <mxCell id="tTjc2lvlWBBuWy-vFHms-12" value="" style="rounded=0;whiteSpace=wrap;html=1;" vertex="1" parent="1">
          <mxGeometry y="130" width="960" height="348" as="geometry" />
        </mxCell>
        <mxCell id="tTjc2lvlWBBuWy-vFHms-13" value="&lt;font style=&quot;font-size: 20px;&quot;&gt;Quản lý mượn trả&lt;/font&gt;" style="rounded=1;whiteSpace=wrap;html=1;fillColor=#0050ef;strokeColor=#001DBC;fontColor=#ffffff;" vertex="1" parent="1">
          <mxGeometry y="50" width="220" height="50" as="geometry" />
        </mxCell>
        <mxCell id="tTjc2lvlWBBuWy-vFHms-14" value="&lt;font style=&quot;font-size: 20px;&quot;&gt;Quản lý sách&lt;/font&gt;" style="rounded=1;whiteSpace=wrap;html=1;fillColor=#b1ddf0;strokeColor=#10739e;" vertex="1" parent="1">
          <mxGeometry x="250" y="50" width="220" height="50" as="geometry" />
        </mxCell>
        <mxCell id="tTjc2lvlWBBuWy-vFHms-15" value="&lt;font style=&quot;font-size: 20px;&quot;&gt;Quản lý bạn đọc&lt;/font&gt;" style="rounded=1;whiteSpace=wrap;html=1;fillColor=#b1ddf0;strokeColor=#10739e;" vertex="1" parent="1">
          <mxGeometry x="500" y="50" width="220" height="50" as="geometry" />
        </mxCell>
        <mxCell id="tTjc2lvlWBBuWy-vFHms-16" value="&lt;font style=&quot;font-size: 20px;&quot;&gt;Báo cáo&lt;/font&gt;" style="rounded=1;whiteSpace=wrap;html=1;fillColor=#b1ddf0;strokeColor=#10739e;" vertex="1" parent="1">
          <mxGeometry x="740" y="50" width="220" height="50" as="geometry" />
        </mxCell>
        <mxCell id="tTjc2lvlWBBuWy-vFHms-17" value="&lt;font style=&quot;font-size: 20px;&quot;&gt;Quản lý mượn sách&lt;/font&gt;" style="rounded=1;whiteSpace=wrap;html=1;fillColor=#0050ef;strokeColor=#001DBC;fontColor=#ffffff;" vertex="1" parent="1">
          <mxGeometry y="190" width="220" height="50" as="geometry" />
        </mxCell>
        <mxCell id="tTjc2lvlWBBuWy-vFHms-18" value="&lt;span style=&quot;font-size: 20px;&quot;&gt;Quản lý trả sách&lt;/span&gt;" style="rounded=1;whiteSpace=wrap;html=1;fillColor=#b1ddf0;strokeColor=#10739e;" vertex="1" parent="1">
          <mxGeometry y="270" width="220" height="50" as="geometry" />
        </mxCell>
        <mxCell id="tTjc2lvlWBBuWy-vFHms-19" value="&lt;span style=&quot;font-size: 20px;&quot;&gt;Gia hạn&lt;/span&gt;" style="rounded=1;whiteSpace=wrap;html=1;fillColor=#b1ddf0;strokeColor=#10739e;" vertex="1" parent="1">
          <mxGeometry y="350" width="220" height="50" as="geometry" />
        </mxCell>
        <mxCell id="tTjc2lvlWBBuWy-vFHms-34" value="&lt;font style=&quot;font-size: 23px;&quot;&gt;thanh trạng thái&amp;nbsp; &amp;nbsp; &amp;nbsp; &amp;nbsp; &amp;nbsp; &amp;nbsp; &amp;nbsp; &amp;nbsp; &amp;nbsp; &amp;nbsp; &amp;nbsp; &amp;nbsp; &amp;nbsp; &amp;nbsp; &amp;nbsp; &amp;nbsp; &amp;nbsp; &amp;nbsp; &amp;nbsp; &amp;nbsp; &amp;nbsp; &amp;nbsp; &amp;nbsp;Người đăng nhập: VÕ QUỐC HUY&amp;nbsp;&lt;/font&gt;" style="rounded=0;whiteSpace=wrap;html=1;align=left;" vertex="1" parent="1">
          <mxGeometry y="490" width="960" height="40" as="geometry" />
        </mxCell>
        <mxCell id="JDqgGXyejiZ--hnpN6S--3" value="" style="rounded=0;whiteSpace=wrap;html=1;" vertex="1" parent="1">
          <mxGeometry x="390" y="230" width="175" height="40" as="geometry" />
        </mxCell>
        <mxCell id="JDqgGXyejiZ--hnpN6S--4" value="" style="rounded=0;whiteSpace=wrap;html=1;" vertex="1" parent="1">
          <mxGeometry x="390" y="180" width="175" height="40" as="geometry" />
        </mxCell>
        <mxCell id="JDqgGXyejiZ--hnpN6S--5" value="&lt;font style=&quot;font-size: 15px;&quot;&gt;Họ tên&lt;/font&gt;" style="text;html=1;align=center;verticalAlign=middle;resizable=0;points=[];autosize=1;strokeColor=none;fillColor=none;" vertex="1" parent="1">
          <mxGeometry x="255" y="185" width="70" height="30" as="geometry" />
        </mxCell>
        <mxCell id="JDqgGXyejiZ--hnpN6S--6" value="&lt;font style=&quot;font-size: 15px;&quot;&gt;Số thẻ thư viện&lt;/font&gt;" style="text;html=1;align=center;verticalAlign=middle;resizable=0;points=[];autosize=1;strokeColor=none;fillColor=none;" vertex="1" parent="1">
          <mxGeometry x="225" y="235" width="130" height="30" as="geometry" />
        </mxCell>
        <mxCell id="JDqgGXyejiZ--hnpN6S--8" value="&lt;font style=&quot;font-size: 15px;&quot;&gt;số đăng kí cá biệt&lt;/font&gt;" style="text;html=1;align=center;verticalAlign=middle;resizable=0;points=[];autosize=1;strokeColor=none;fillColor=none;" vertex="1" parent="1">
          <mxGeometry x="220" y="285" width="140" height="30" as="geometry" />
        </mxCell>
        <mxCell id="JDqgGXyejiZ--hnpN6S--9" value="&lt;font style=&quot;font-size: 15px;&quot;&gt;tên sách&lt;/font&gt;" style="text;html=1;align=center;verticalAlign=middle;resizable=0;points=[];autosize=1;strokeColor=none;fillColor=none;" vertex="1" parent="1">
          <mxGeometry x="255" y="335" width="80" height="30" as="geometry" />
        </mxCell>
        <mxCell id="JDqgGXyejiZ--hnpN6S--13" value="" style="rounded=0;whiteSpace=wrap;html=1;" vertex="1" parent="1">
          <mxGeometry x="390" y="280" width="175" height="40" as="geometry" />
        </mxCell>
        <mxCell id="JDqgGXyejiZ--hnpN6S--14" value="" style="rounded=0;whiteSpace=wrap;html=1;" vertex="1" parent="1">
          <mxGeometry x="390" y="330" width="175" height="40" as="geometry" />
        </mxCell>
        <mxCell id="JDqgGXyejiZ--hnpN6S--15" value="&lt;span style=&quot;font-size: 20px;&quot;&gt;Thêm&lt;/span&gt;" style="rounded=1;whiteSpace=wrap;html=1;fillColor=#b1ddf0;strokeColor=#10739e;" vertex="1" parent="1">
          <mxGeometry x="280" y="390" width="120" height="50" as="geometry" />
        </mxCell>
        <mxCell id="JDqgGXyejiZ--hnpN6S--16" value="&lt;span style=&quot;font-size: 20px;&quot;&gt;Hủy&lt;/span&gt;" style="rounded=1;whiteSpace=wrap;html=1;fillColor=#FA1600;strokeColor=#B20000;fontColor=#ffffff;" vertex="1" parent="1">
          <mxGeometry x="445" y="390" width="120" height="50" as="geometry" />
        </mxCell>
        <mxCell id="JDqgGXyejiZ--hnpN6S--22" value="" style="rounded=0;whiteSpace=wrap;html=1;" vertex="1" parent="1">
          <mxGeometry x="580" y="180" width="370" height="190" as="geometry" />
        </mxCell>
        <mxCell id="JDqgGXyejiZ--hnpN6S--23" value="&lt;span style=&quot;font-size: 20px;&quot;&gt;Xát nhân mượn&lt;/span&gt;" style="rounded=1;whiteSpace=wrap;html=1;fillColor=#d5e8d4;strokeColor=#82b366;gradientColor=#97d077;" vertex="1" parent="1">
          <mxGeometry x="705" y="390" width="120" height="50" as="geometry" />
        </mxCell>
        <mxCell id="JDqgGXyejiZ--hnpN6S--24" value="&lt;font style=&quot;font-size: 15px;&quot;&gt;Danh sách sách chuẩn bị mượn&lt;/font&gt;" style="text;html=1;align=center;verticalAlign=middle;resizable=0;points=[];autosize=1;strokeColor=none;fillColor=none;" vertex="1" parent="1">
          <mxGeometry x="640" y="150" width="240" height="30" as="geometry" />
        </mxCell>
        <mxCell id="JDqgGXyejiZ--hnpN6S--26" value="&lt;font style=&quot;font-size: 15px;&quot;&gt;Sô lượng: 10&lt;/font&gt;" style="text;html=1;align=center;verticalAlign=middle;resizable=0;points=[];autosize=1;strokeColor=none;fillColor=none;" vertex="1" parent="1">
          <mxGeometry x="840" y="335" width="110" height="30" as="geometry" />
        </mxCell>
      </root>
    </mxGraphModel>
  </diagram>
  <diagram id="yKJUPr1oHikpwMUCOBrg" name="Page-5">
    <mxGraphModel dx="1687" dy="1045" grid="1" gridSize="10" guides="1" tooltips="1" connect="1" arrows="1" fold="1" page="1" pageScale="1" pageWidth="1169" pageHeight="1654" math="0" shadow="0">
      <root>
        <mxCell id="0" />
        <mxCell id="1" parent="0" />
        <mxCell id="MYHyVdYkarjeZoiPLvS7-1" value="" style="ellipse;html=1;shape=startState;fillColor=#000000;strokeColor=#ff0000;" vertex="1" parent="1">
          <mxGeometry x="500" y="70" width="30" height="30" as="geometry" />
        </mxCell>
        <mxCell id="MYHyVdYkarjeZoiPLvS7-2" value="" style="edgeStyle=orthogonalEdgeStyle;html=1;verticalAlign=bottom;endArrow=open;endSize=8;strokeColor=#ff0000;rounded=0;" edge="1" source="MYHyVdYkarjeZoiPLvS7-1" parent="1">
          <mxGeometry relative="1" as="geometry">
            <mxPoint x="515" y="160" as="targetPoint" />
          </mxGeometry>
        </mxCell>
        <mxCell id="MYHyVdYkarjeZoiPLvS7-9" style="edgeStyle=orthogonalEdgeStyle;rounded=0;orthogonalLoop=1;jettySize=auto;html=1;entryX=0.5;entryY=0;entryDx=0;entryDy=0;" edge="1" parent="1" source="MYHyVdYkarjeZoiPLvS7-3" target="MYHyVdYkarjeZoiPLvS7-5">
          <mxGeometry relative="1" as="geometry" />
        </mxCell>
        <mxCell id="MYHyVdYkarjeZoiPLvS7-10" style="edgeStyle=orthogonalEdgeStyle;rounded=0;orthogonalLoop=1;jettySize=auto;html=1;entryX=0.5;entryY=0;entryDx=0;entryDy=0;" edge="1" parent="1" source="MYHyVdYkarjeZoiPLvS7-3" target="MYHyVdYkarjeZoiPLvS7-4">
          <mxGeometry relative="1" as="geometry" />
        </mxCell>
        <mxCell id="MYHyVdYkarjeZoiPLvS7-3" value="Quét số thẻ thư viện" style="rounded=0;whiteSpace=wrap;html=1;" vertex="1" parent="1">
          <mxGeometry x="455" y="160" width="120" height="60" as="geometry" />
        </mxCell>
        <mxCell id="MYHyVdYkarjeZoiPLvS7-13" style="edgeStyle=orthogonalEdgeStyle;rounded=0;orthogonalLoop=1;jettySize=auto;html=1;entryX=0.5;entryY=0;entryDx=0;entryDy=0;" edge="1" parent="1" source="MYHyVdYkarjeZoiPLvS7-4" target="MYHyVdYkarjeZoiPLvS7-12">
          <mxGeometry relative="1" as="geometry" />
        </mxCell>
        <mxCell id="MYHyVdYkarjeZoiPLvS7-4" value="Ấn nút hủy" style="rounded=0;whiteSpace=wrap;html=1;" vertex="1" parent="1">
          <mxGeometry x="740" y="600" width="120" height="60" as="geometry" />
        </mxCell>
        <mxCell id="MYHyVdYkarjeZoiPLvS7-7" style="edgeStyle=orthogonalEdgeStyle;rounded=0;orthogonalLoop=1;jettySize=auto;html=1;entryX=0.5;entryY=0;entryDx=0;entryDy=0;" edge="1" parent="1" source="MYHyVdYkarjeZoiPLvS7-5" target="MYHyVdYkarjeZoiPLvS7-6">
          <mxGeometry relative="1" as="geometry" />
        </mxCell>
        <mxCell id="MYHyVdYkarjeZoiPLvS7-11" style="edgeStyle=orthogonalEdgeStyle;rounded=0;orthogonalLoop=1;jettySize=auto;html=1;entryX=0.25;entryY=0;entryDx=0;entryDy=0;" edge="1" parent="1" source="MYHyVdYkarjeZoiPLvS7-5" target="MYHyVdYkarjeZoiPLvS7-4">
          <mxGeometry relative="1" as="geometry" />
        </mxCell>
        <mxCell id="MYHyVdYkarjeZoiPLvS7-5" value="Quét số đăng kí cá biệt" style="rounded=0;whiteSpace=wrap;html=1;" vertex="1" parent="1">
          <mxGeometry x="455" y="280" width="120" height="60" as="geometry" />
        </mxCell>
        <mxCell id="MYHyVdYkarjeZoiPLvS7-8" style="edgeStyle=orthogonalEdgeStyle;rounded=0;orthogonalLoop=1;jettySize=auto;html=1;entryX=0;entryY=0.5;entryDx=0;entryDy=0;" edge="1" parent="1" source="MYHyVdYkarjeZoiPLvS7-6" target="MYHyVdYkarjeZoiPLvS7-5">
          <mxGeometry relative="1" as="geometry">
            <Array as="points">
              <mxPoint x="400" y="440" />
              <mxPoint x="400" y="310" />
            </Array>
          </mxGeometry>
        </mxCell>
        <mxCell id="MYHyVdYkarjeZoiPLvS7-15" style="edgeStyle=orthogonalEdgeStyle;rounded=0;orthogonalLoop=1;jettySize=auto;html=1;" edge="1" parent="1" source="MYHyVdYkarjeZoiPLvS7-6" target="MYHyVdYkarjeZoiPLvS7-14">
          <mxGeometry relative="1" as="geometry" />
        </mxCell>
        <mxCell id="MYHyVdYkarjeZoiPLvS7-6" value="Ấn nút thêm" style="rounded=0;whiteSpace=wrap;html=1;" vertex="1" parent="1">
          <mxGeometry x="455" y="410" width="120" height="60" as="geometry" />
        </mxCell>
        <mxCell id="MYHyVdYkarjeZoiPLvS7-12" value="" style="ellipse;html=1;shape=endState;fillColor=#000000;strokeColor=#ff0000;" vertex="1" parent="1">
          <mxGeometry x="785" y="812" width="30" height="30" as="geometry" />
        </mxCell>
        <mxCell id="MYHyVdYkarjeZoiPLvS7-17" style="edgeStyle=orthogonalEdgeStyle;rounded=0;orthogonalLoop=1;jettySize=auto;html=1;entryX=0.5;entryY=0;entryDx=0;entryDy=0;" edge="1" parent="1" source="MYHyVdYkarjeZoiPLvS7-14" target="MYHyVdYkarjeZoiPLvS7-16">
          <mxGeometry relative="1" as="geometry" />
        </mxCell>
        <mxCell id="MYHyVdYkarjeZoiPLvS7-20" style="edgeStyle=orthogonalEdgeStyle;rounded=0;orthogonalLoop=1;jettySize=auto;html=1;entryX=0;entryY=0.5;entryDx=0;entryDy=0;" edge="1" parent="1" source="MYHyVdYkarjeZoiPLvS7-14" target="MYHyVdYkarjeZoiPLvS7-4">
          <mxGeometry relative="1" as="geometry" />
        </mxCell>
        <mxCell id="MYHyVdYkarjeZoiPLvS7-14" value="Thêm sách vào danh sách chuẩn bị mượn" style="rounded=0;whiteSpace=wrap;html=1;" vertex="1" parent="1">
          <mxGeometry x="455" y="550" width="120" height="60" as="geometry" />
        </mxCell>
        <mxCell id="MYHyVdYkarjeZoiPLvS7-19" style="edgeStyle=orthogonalEdgeStyle;rounded=0;orthogonalLoop=1;jettySize=auto;html=1;" edge="1" parent="1" source="MYHyVdYkarjeZoiPLvS7-16" target="MYHyVdYkarjeZoiPLvS7-18">
          <mxGeometry relative="1" as="geometry" />
        </mxCell>
        <mxCell id="MYHyVdYkarjeZoiPLvS7-16" value="Ấn nút xát nhận mượn" style="rounded=0;whiteSpace=wrap;html=1;" vertex="1" parent="1">
          <mxGeometry x="455" y="680" width="120" height="60" as="geometry" />
        </mxCell>
        <mxCell id="MYHyVdYkarjeZoiPLvS7-18" value="" style="ellipse;html=1;shape=endState;fillColor=#000000;strokeColor=#ff0000;" vertex="1" parent="1">
          <mxGeometry x="500" y="812" width="30" height="30" as="geometry" />
        </mxCell>
      </root>
    </mxGraphModel>
  </diagram>
  <diagram id="_KfFCyaIsYbQCUE01e9R" name="giao diện cho mượn sách">
    <mxGraphModel dx="3218" dy="1269" grid="1" gridSize="10" guides="1" tooltips="1" connect="1" arrows="1" fold="1" page="1" pageScale="1" pageWidth="1169" pageHeight="1654" math="0" shadow="0">
      <root>
        <mxCell id="0" />
        <mxCell id="1" parent="0" />
        <mxCell id="tf-egFsG0lLHiCmOkwZC-1" value="" style="rounded=0;whiteSpace=wrap;html=1;fillColor=#d5e8d4;strokeColor=#82b366;" vertex="1" parent="1">
          <mxGeometry width="1160" height="680" as="geometry" />
        </mxCell>
        <mxCell id="tf-egFsG0lLHiCmOkwZC-2" value="" style="rounded=0;whiteSpace=wrap;html=1;fillColor=#dae8fc;strokeColor=#6c8ebf;" vertex="1" parent="1">
          <mxGeometry width="1160" height="50" as="geometry" />
        </mxCell>
        <mxCell id="tf-egFsG0lLHiCmOkwZC-3" value="" style="rounded=0;whiteSpace=wrap;html=1;fillColor=#e51400;fontColor=#ffffff;strokeColor=#B20000;" vertex="1" parent="1">
          <mxGeometry x="1110" width="50" height="50" as="geometry" />
        </mxCell>
        <mxCell id="tf-egFsG0lLHiCmOkwZC-4" value="" style="rounded=0;whiteSpace=wrap;html=1;" vertex="1" parent="1">
          <mxGeometry x="1060" width="50" height="50" as="geometry" />
        </mxCell>
        <mxCell id="tf-egFsG0lLHiCmOkwZC-5" value="" style="rounded=0;whiteSpace=wrap;html=1;fillColor=#e3c800;fontColor=#000000;strokeColor=#B09500;" vertex="1" parent="1">
          <mxGeometry x="1010" width="50" height="50" as="geometry" />
        </mxCell>
        <mxCell id="tf-egFsG0lLHiCmOkwZC-6" value="" style="endArrow=none;html=1;rounded=0;" edge="1" parent="1">
          <mxGeometry width="50" height="50" relative="1" as="geometry">
            <mxPoint x="1110" y="50" as="sourcePoint" />
            <mxPoint x="1160" as="targetPoint" />
          </mxGeometry>
        </mxCell>
        <mxCell id="tf-egFsG0lLHiCmOkwZC-7" value="" style="endArrow=none;html=1;rounded=0;exitX=1;exitY=0;exitDx=0;exitDy=0;entryX=1;entryY=1;entryDx=0;entryDy=0;" edge="1" parent="1" source="tf-egFsG0lLHiCmOkwZC-4" target="tf-egFsG0lLHiCmOkwZC-3">
          <mxGeometry width="50" height="50" relative="1" as="geometry">
            <mxPoint x="860" y="120.00000000000001" as="sourcePoint" />
            <mxPoint x="970" y="131.45" as="targetPoint" />
          </mxGeometry>
        </mxCell>
        <mxCell id="tf-egFsG0lLHiCmOkwZC-8" value="" style="endArrow=none;html=1;rounded=0;entryX=1;entryY=0.5;entryDx=0;entryDy=0;exitX=0;exitY=0.5;exitDx=0;exitDy=0;" edge="1" parent="1" source="tf-egFsG0lLHiCmOkwZC-5" target="tf-egFsG0lLHiCmOkwZC-5">
          <mxGeometry width="50" height="50" relative="1" as="geometry">
            <mxPoint x="830" y="75" as="sourcePoint" />
            <mxPoint x="890" y="30" as="targetPoint" />
          </mxGeometry>
        </mxCell>
        <mxCell id="tf-egFsG0lLHiCmOkwZC-9" value="" style="whiteSpace=wrap;html=1;aspect=fixed;" vertex="1" parent="1">
          <mxGeometry x="1060" y="10" width="40" height="40" as="geometry" />
        </mxCell>
        <mxCell id="tf-egFsG0lLHiCmOkwZC-10" value="" style="whiteSpace=wrap;html=1;aspect=fixed;" vertex="1" parent="1">
          <mxGeometry x="1060" y="30" width="20" height="20" as="geometry" />
        </mxCell>
        <mxCell id="tf-egFsG0lLHiCmOkwZC-11" value="&lt;font color=&quot;#ffff66&quot; style=&quot;font-size: 23px;&quot;&gt;THƯ VIỆN HỌC VIỆN KỸ THUẬT QUÂN SỰ&lt;/font&gt;" style="rounded=0;whiteSpace=wrap;html=1;fillColor=#e51400;fontColor=#ffffff;strokeColor=#B20000;" vertex="1" parent="1">
          <mxGeometry width="570" height="50" as="geometry" />
        </mxCell>
        <mxCell id="tf-egFsG0lLHiCmOkwZC-12" value="" style="rounded=0;whiteSpace=wrap;html=1;" vertex="1" parent="1">
          <mxGeometry y="155" width="1160" height="445" as="geometry" />
        </mxCell>
        <mxCell id="tf-egFsG0lLHiCmOkwZC-13" value="&lt;font color=&quot;#ffffff&quot; style=&quot;font-size: 20px;&quot;&gt;Quản lý mượn trả&lt;/font&gt;" style="rounded=1;whiteSpace=wrap;html=1;fillColor=#0050EF;strokeColor=#10739e;" vertex="1" parent="1">
          <mxGeometry y="90" width="170" height="30" as="geometry" />
        </mxCell>
        <mxCell id="tf-egFsG0lLHiCmOkwZC-14" value="&lt;font style=&quot;font-size: 20px;&quot;&gt;Quản lý sách&lt;/font&gt;" style="rounded=1;whiteSpace=wrap;html=1;fillColor=#b1ddf0;strokeColor=#10739e;" vertex="1" parent="1">
          <mxGeometry x="200" y="90" width="170" height="30" as="geometry" />
        </mxCell>
        <mxCell id="tf-egFsG0lLHiCmOkwZC-15" value="&lt;font color=&quot;#000000&quot; style=&quot;font-size: 20px;&quot;&gt;Quản lý bạn đọc&lt;/font&gt;" style="rounded=1;whiteSpace=wrap;html=1;fillColor=#B1DDF0;strokeColor=#001DBC;fontColor=#ffffff;" vertex="1" parent="1">
          <mxGeometry x="400" y="90" width="170" height="30" as="geometry" />
        </mxCell>
        <mxCell id="tf-egFsG0lLHiCmOkwZC-16" value="&lt;font style=&quot;font-size: 20px;&quot;&gt;Báo cáo&lt;/font&gt;" style="rounded=1;whiteSpace=wrap;html=1;fillColor=#b1ddf0;strokeColor=#10739e;" vertex="1" parent="1">
          <mxGeometry x="600" y="90" width="170" height="30" as="geometry" />
        </mxCell>
        <mxCell id="tf-egFsG0lLHiCmOkwZC-20" value="" style="rounded=0;whiteSpace=wrap;html=1;" vertex="1" parent="1">
          <mxGeometry x="-435" y="877" width="355" height="40" as="geometry" />
        </mxCell>
        <mxCell id="tf-egFsG0lLHiCmOkwZC-21" value="" style="rounded=0;whiteSpace=wrap;html=1;" vertex="1" parent="1">
          <mxGeometry x="-435" y="827" width="355" height="40" as="geometry" />
        </mxCell>
        <mxCell id="tf-egFsG0lLHiCmOkwZC-22" value="&lt;font style=&quot;font-size: 15px;&quot;&gt;Họ tên&lt;/font&gt;" style="text;html=1;align=center;verticalAlign=middle;resizable=0;points=[];autosize=1;strokeColor=none;fillColor=none;" vertex="1" parent="1">
          <mxGeometry x="-570" y="832" width="70" height="30" as="geometry" />
        </mxCell>
        <mxCell id="tf-egFsG0lLHiCmOkwZC-23" value="&lt;font style=&quot;font-size: 15px;&quot;&gt;Ngày sinh&lt;/font&gt;" style="text;html=1;align=center;verticalAlign=middle;resizable=0;points=[];autosize=1;strokeColor=none;fillColor=none;" vertex="1" parent="1">
          <mxGeometry x="-580" y="877" width="90" height="30" as="geometry" />
        </mxCell>
        <mxCell id="tf-egFsG0lLHiCmOkwZC-24" value="&lt;font style=&quot;font-size: 15px;&quot;&gt;khóa học&lt;/font&gt;" style="text;html=1;align=center;verticalAlign=middle;resizable=0;points=[];autosize=1;strokeColor=none;fillColor=none;" vertex="1" parent="1">
          <mxGeometry x="-575" y="932" width="80" height="30" as="geometry" />
        </mxCell>
        <mxCell id="tf-egFsG0lLHiCmOkwZC-25" value="&lt;font style=&quot;font-size: 15px;&quot;&gt;số điện thoại&lt;/font&gt;" style="text;html=1;align=center;verticalAlign=middle;resizable=0;points=[];autosize=1;strokeColor=none;fillColor=none;" vertex="1" parent="1">
          <mxGeometry x="-590" y="992" width="110" height="30" as="geometry" />
        </mxCell>
        <mxCell id="tf-egFsG0lLHiCmOkwZC-26" value="&lt;font style=&quot;font-size: 15px;&quot;&gt;Email&lt;/font&gt;" style="text;html=1;align=center;verticalAlign=middle;resizable=0;points=[];autosize=1;strokeColor=none;fillColor=none;" vertex="1" parent="1">
          <mxGeometry x="-560" y="1042" width="60" height="30" as="geometry" />
        </mxCell>
        <mxCell id="tf-egFsG0lLHiCmOkwZC-27" value="&lt;font style=&quot;font-size: 15px;&quot;&gt;Đơn vị&lt;/font&gt;" style="text;html=1;align=center;verticalAlign=middle;resizable=0;points=[];autosize=1;strokeColor=none;fillColor=none;" vertex="1" parent="1">
          <mxGeometry x="-265" y="932" width="70" height="30" as="geometry" />
        </mxCell>
        <mxCell id="tf-egFsG0lLHiCmOkwZC-28" value="" style="rounded=0;whiteSpace=wrap;html=1;" vertex="1" parent="1">
          <mxGeometry x="-435" y="927" width="175" height="40" as="geometry" />
        </mxCell>
        <mxCell id="tf-egFsG0lLHiCmOkwZC-29" value="" style="rounded=0;whiteSpace=wrap;html=1;" vertex="1" parent="1">
          <mxGeometry x="-195" y="927" width="115" height="40" as="geometry" />
        </mxCell>
        <mxCell id="tf-egFsG0lLHiCmOkwZC-30" value="" style="rounded=0;whiteSpace=wrap;html=1;" vertex="1" parent="1">
          <mxGeometry x="-435" y="987" width="355" height="40" as="geometry" />
        </mxCell>
        <mxCell id="tf-egFsG0lLHiCmOkwZC-31" value="" style="rounded=0;whiteSpace=wrap;html=1;" vertex="1" parent="1">
          <mxGeometry x="-435" y="1037" width="355" height="40" as="geometry" />
        </mxCell>
        <mxCell id="tf-egFsG0lLHiCmOkwZC-32" value="&lt;span style=&quot;font-size: 20px;&quot;&gt;Tạo mới&lt;/span&gt;" style="rounded=1;whiteSpace=wrap;html=1;fillColor=#b1ddf0;strokeColor=#10739e;" vertex="1" parent="1">
          <mxGeometry x="-392.5" y="1087" width="120" height="50" as="geometry" />
        </mxCell>
        <mxCell id="tf-egFsG0lLHiCmOkwZC-33" value="&lt;span style=&quot;font-size: 20px;&quot;&gt;Cấp lại&lt;/span&gt;" style="rounded=1;whiteSpace=wrap;html=1;fillColor=#b1ddf0;strokeColor=#10739e;" vertex="1" parent="1">
          <mxGeometry x="-242.5" y="1087" width="120" height="50" as="geometry" />
        </mxCell>
        <mxCell id="tf-egFsG0lLHiCmOkwZC-34" value="&lt;font style=&quot;font-size: 23px;&quot;&gt;thanh trạng thái&amp;nbsp; &amp;nbsp; &amp;nbsp; &amp;nbsp; &amp;nbsp; &amp;nbsp; &amp;nbsp; &amp;nbsp; &amp;nbsp; &amp;nbsp; &amp;nbsp; &amp;nbsp; &amp;nbsp; &amp;nbsp; &amp;nbsp; &amp;nbsp; &amp;nbsp; &amp;nbsp; &amp;nbsp; &amp;nbsp; &amp;nbsp; &amp;nbsp; &amp;nbsp; Người đăng nhập: VÕ QUỐC HUY&amp;nbsp;&lt;/font&gt;" style="rounded=0;whiteSpace=wrap;html=1;align=left;" vertex="1" parent="1">
          <mxGeometry y="640" width="1160" height="40" as="geometry" />
        </mxCell>
        <mxCell id="tf-egFsG0lLHiCmOkwZC-43" value="" style="ellipse;whiteSpace=wrap;html=1;aspect=fixed;" vertex="1" parent="1">
          <mxGeometry x="1004.3699999999999" y="50" width="45.63" height="45.63" as="geometry" />
        </mxCell>
        <mxCell id="tf-egFsG0lLHiCmOkwZC-44" value="" style="ellipse;whiteSpace=wrap;html=1;aspect=fixed;" vertex="1" parent="1">
          <mxGeometry x="1017.81" y="63.440000000000055" width="18.75" height="18.75" as="geometry" />
        </mxCell>
        <mxCell id="tf-egFsG0lLHiCmOkwZC-45" value="" style="shape=dataStorage;whiteSpace=wrap;html=1;fixedSize=1;rotation=90;" vertex="1" parent="1">
          <mxGeometry x="1023.74" y="76.13000000000011" width="6.88" height="19.5" as="geometry" />
        </mxCell>
        <mxCell id="vSlsIjelRK1pk1Mz29xG-1" value="&lt;font style=&quot;font-size: 20px;&quot;&gt;&amp;nbsp;Mượn sách&lt;/font&gt;" style="rounded=1;whiteSpace=wrap;html=1;fillColor=#0050ef;strokeColor=#001DBC;fontColor=#ffffff;" vertex="1" parent="1">
          <mxGeometry y="155" width="170" height="30" as="geometry" />
        </mxCell>
        <mxCell id="vSlsIjelRK1pk1Mz29xG-2" value="&lt;span style=&quot;font-size: 20px;&quot;&gt;Trả sách&lt;/span&gt;" style="rounded=1;whiteSpace=wrap;html=1;fillColor=#b1ddf0;strokeColor=#10739e;" vertex="1" parent="1">
          <mxGeometry y="330" width="170" height="30" as="geometry" />
        </mxCell>
        <mxCell id="vSlsIjelRK1pk1Mz29xG-3" value="&lt;span style=&quot;font-size: 20px;&quot;&gt;Gia hạn&lt;/span&gt;" style="rounded=1;whiteSpace=wrap;html=1;fillColor=#b1ddf0;strokeColor=#10739e;" vertex="1" parent="1">
          <mxGeometry y="420" width="170" height="30" as="geometry" />
        </mxCell>
        <mxCell id="vSlsIjelRK1pk1Mz29xG-4" value="&lt;span style=&quot;font-size: 20px;&quot;&gt;&lt;font color=&quot;#ffffff&quot;&gt;Sách không mật&lt;/font&gt;&lt;/span&gt;" style="rounded=1;whiteSpace=wrap;html=1;fillColor=#0050EF;strokeColor=#10739e;" vertex="1" parent="1">
          <mxGeometry x="20" y="205" width="150" height="30" as="geometry" />
        </mxCell>
        <mxCell id="vSlsIjelRK1pk1Mz29xG-5" value="&lt;span style=&quot;font-size: 20px;&quot;&gt;Sách mật&lt;/span&gt;" style="rounded=1;whiteSpace=wrap;html=1;fillColor=#b1ddf0;strokeColor=#10739e;" vertex="1" parent="1">
          <mxGeometry x="20" y="255" width="150" height="30" as="geometry" />
        </mxCell>
        <mxCell id="vSlsIjelRK1pk1Mz29xG-6" value="" style="endArrow=none;html=1;rounded=0;" edge="1" parent="1">
          <mxGeometry width="50" height="50" relative="1" as="geometry">
            <mxPoint x="30" y="205" as="sourcePoint" />
            <mxPoint x="30" y="185" as="targetPoint" />
          </mxGeometry>
        </mxCell>
        <mxCell id="vSlsIjelRK1pk1Mz29xG-7" value="" style="endArrow=none;html=1;rounded=0;" edge="1" parent="1">
          <mxGeometry width="50" height="50" relative="1" as="geometry">
            <mxPoint x="30" y="255" as="sourcePoint" />
            <mxPoint x="30" y="235" as="targetPoint" />
          </mxGeometry>
        </mxCell>
        <mxCell id="vSlsIjelRK1pk1Mz29xG-8" value="&lt;span style=&quot;text-align: left;&quot;&gt;&lt;font style=&quot;font-size: 14px;&quot;&gt;VÕ QUỐC HUY&lt;/font&gt;&lt;/span&gt;&lt;div&gt;&lt;span style=&quot;text-align: left;&quot;&gt;&lt;font style=&quot;font-size: 14px;&quot;&gt;Thủ thư&amp;nbsp;&lt;/font&gt;&lt;/span&gt;&lt;/div&gt;" style="text;html=1;align=center;verticalAlign=middle;whiteSpace=wrap;rounded=0;" vertex="1" parent="1">
          <mxGeometry x="1050" y="57.81" width="110" height="30" as="geometry" />
        </mxCell>
        <mxCell id="dbg8ERAv9dab658LKvtP-1" value="" style="rounded=0;whiteSpace=wrap;html=1;" vertex="1" parent="1">
          <mxGeometry x="1450" y="316.5" width="175" height="40" as="geometry" />
        </mxCell>
        <mxCell id="dbg8ERAv9dab658LKvtP-2" value="" style="rounded=0;whiteSpace=wrap;html=1;" vertex="1" parent="1">
          <mxGeometry x="1450" y="266.5" width="175" height="40" as="geometry" />
        </mxCell>
        <mxCell id="dbg8ERAv9dab658LKvtP-3" value="&lt;font style=&quot;font-size: 15px;&quot;&gt;Họ tên&lt;/font&gt;" style="text;html=1;align=center;verticalAlign=middle;resizable=0;points=[];autosize=1;strokeColor=none;fillColor=none;" vertex="1" parent="1">
          <mxGeometry x="1350" y="371.5" width="70" height="30" as="geometry" />
        </mxCell>
        <mxCell id="dbg8ERAv9dab658LKvtP-4" value="&lt;font style=&quot;font-size: 15px;&quot;&gt;Số thẻ thư viện&lt;/font&gt;" style="text;html=1;align=center;verticalAlign=middle;resizable=0;points=[];autosize=1;strokeColor=none;fillColor=none;" vertex="1" parent="1">
          <mxGeometry x="1286.56" y="421.5" width="130" height="30" as="geometry" />
        </mxCell>
        <mxCell id="dbg8ERAv9dab658LKvtP-5" value="&lt;font style=&quot;font-size: 15px;&quot;&gt;số đăng kí cá biệt&lt;/font&gt;" style="text;html=1;align=center;verticalAlign=middle;resizable=0;points=[];autosize=1;strokeColor=none;fillColor=none;" vertex="1" parent="1">
          <mxGeometry x="1280" y="321.5" width="140" height="30" as="geometry" />
        </mxCell>
        <mxCell id="dbg8ERAv9dab658LKvtP-6" value="&lt;font style=&quot;font-size: 15px;&quot;&gt;tên sách&lt;/font&gt;" style="text;html=1;align=center;verticalAlign=middle;resizable=0;points=[];autosize=1;strokeColor=none;fillColor=none;" vertex="1" parent="1">
          <mxGeometry x="1340" y="271.5" width="80" height="30" as="geometry" />
        </mxCell>
        <mxCell id="dbg8ERAv9dab658LKvtP-7" value="" style="rounded=0;whiteSpace=wrap;html=1;" vertex="1" parent="1">
          <mxGeometry x="1450" y="366.5" width="175" height="40" as="geometry" />
        </mxCell>
        <mxCell id="dbg8ERAv9dab658LKvtP-8" value="" style="rounded=0;whiteSpace=wrap;html=1;" vertex="1" parent="1">
          <mxGeometry x="1450" y="416.5" width="175" height="40" as="geometry" />
        </mxCell>
        <mxCell id="dbg8ERAv9dab658LKvtP-9" value="&lt;span style=&quot;font-size: 20px;&quot;&gt;Thêm&lt;/span&gt;" style="rounded=1;whiteSpace=wrap;html=1;fillColor=#b1ddf0;strokeColor=#10739e;" vertex="1" parent="1">
          <mxGeometry x="1340" y="476.5" width="120" height="50" as="geometry" />
        </mxCell>
        <mxCell id="dbg8ERAv9dab658LKvtP-10" value="&lt;span style=&quot;font-size: 20px;&quot;&gt;Hủy&lt;/span&gt;" style="rounded=1;whiteSpace=wrap;html=1;fillColor=#FA1600;strokeColor=#B20000;fontColor=#ffffff;" vertex="1" parent="1">
          <mxGeometry x="1505" y="476.5" width="120" height="50" as="geometry" />
        </mxCell>
        <mxCell id="dbg8ERAv9dab658LKvtP-11" value="" style="rounded=0;whiteSpace=wrap;html=1;" vertex="1" parent="1">
          <mxGeometry x="1640" y="266.5" width="420" height="190" as="geometry" />
        </mxCell>
        <mxCell id="dbg8ERAv9dab658LKvtP-12" value="&lt;span style=&quot;font-size: 20px;&quot;&gt;Xát nhân mượn&lt;/span&gt;" style="rounded=1;whiteSpace=wrap;html=1;fillColor=#d5e8d4;strokeColor=#82b366;gradientColor=#97d077;" vertex="1" parent="1">
          <mxGeometry x="1790" y="476.5" width="120" height="50" as="geometry" />
        </mxCell>
        <mxCell id="dbg8ERAv9dab658LKvtP-13" value="&lt;font style=&quot;font-size: 15px;&quot;&gt;Danh sách sách chuẩn bị mượn&lt;/font&gt;" style="text;html=1;align=center;verticalAlign=middle;resizable=0;points=[];autosize=1;strokeColor=none;fillColor=none;" vertex="1" parent="1">
          <mxGeometry x="1730" y="236.5" width="240" height="30" as="geometry" />
        </mxCell>
        <mxCell id="dbg8ERAv9dab658LKvtP-14" value="&lt;font style=&quot;font-size: 15px;&quot;&gt;Sô lượng: 10&lt;/font&gt;" style="text;html=1;align=center;verticalAlign=middle;resizable=0;points=[];autosize=1;strokeColor=none;fillColor=none;" vertex="1" parent="1">
          <mxGeometry x="1950" y="426.5" width="110" height="30" as="geometry" />
        </mxCell>
        <mxCell id="dbg8ERAv9dab658LKvtP-15" value="&lt;font style=&quot;font-size: 20px;&quot;&gt;Thông kê&lt;/font&gt;" style="rounded=1;whiteSpace=wrap;html=1;fillColor=#b1ddf0;strokeColor=#10739e;" vertex="1" parent="1">
          <mxGeometry y="967" width="170" height="30" as="geometry" />
        </mxCell>
        <mxCell id="Ull7Q2rYF_87UsVFkKLf-1" value="" style="rounded=0;whiteSpace=wrap;html=1;" vertex="1" parent="1">
          <mxGeometry x="1450" y="163.5" width="175" height="40" as="geometry" />
        </mxCell>
        <mxCell id="Ull7Q2rYF_87UsVFkKLf-6" value="" style="html=1;verticalLabelPosition=bottom;align=center;labelBackgroundColor=#ffffff;verticalAlign=top;strokeWidth=2;strokeColor=#0080F0;shadow=0;dashed=0;shape=mxgraph.ios7.icons.settings;" vertex="1" parent="1">
          <mxGeometry x="949.37" y="50" width="45.63" height="45.63" as="geometry" />
        </mxCell>
        <mxCell id="Ull7Q2rYF_87UsVFkKLf-7" value="&lt;span style=&quot;font-size: 20px;&quot;&gt;Tìm sách&lt;/span&gt;" style="rounded=1;whiteSpace=wrap;html=1;fillColor=#b1ddf0;strokeColor=#10739e;" vertex="1" parent="1">
          <mxGeometry x="1640" y="168.5" width="110" height="30" as="geometry" />
        </mxCell>
        <mxCell id="Ull7Q2rYF_87UsVFkKLf-8" value="" style="rounded=0;whiteSpace=wrap;html=1;" vertex="1" parent="1">
          <mxGeometry x="1840" y="163.5" width="220.32" height="40" as="geometry" />
        </mxCell>
        <mxCell id="Ull7Q2rYF_87UsVFkKLf-9" value="&lt;font style=&quot;font-size: 15px;&quot;&gt;Vị trí sách&lt;/font&gt;" style="text;html=1;align=center;verticalAlign=middle;resizable=0;points=[];autosize=1;strokeColor=none;fillColor=none;" vertex="1" parent="1">
          <mxGeometry x="1750" y="168.5" width="90" height="30" as="geometry" />
        </mxCell>
        <mxCell id="Ull7Q2rYF_87UsVFkKLf-10" value="" style="rounded=0;whiteSpace=wrap;html=1;" vertex="1" parent="1">
          <mxGeometry x="1205" y="632" width="980" height="445" as="geometry" />
        </mxCell>
        <mxCell id="Ull7Q2rYF_87UsVFkKLf-11" value="&lt;span style=&quot;font-size: 15px; text-wrap: nowrap;&quot;&gt;tên sách&lt;/span&gt;" style="rounded=0;whiteSpace=wrap;html=1;align=left;" vertex="1" parent="1">
          <mxGeometry x="1325" y="163.5" width="95" height="40" as="geometry" />
        </mxCell>
        <mxCell id="Ull7Q2rYF_87UsVFkKLf-12" value="" style="html=1;verticalLabelPosition=bottom;labelBackgroundColor=#ffffff;verticalAlign=top;shadow=0;dashed=0;strokeWidth=2;shape=mxgraph.ios7.misc.down;strokeColor=#0080f0;" vertex="1" parent="1">
          <mxGeometry x="1390.56" y="175.5" width="26" height="16" as="geometry" />
        </mxCell>
      </root>
    </mxGraphModel>
  </diagram>
</mxfile>
